<?xml version="1.0" encoding="utf-8"?>
<!-- Generator: Adobe Illustrator 25.4.0, SVG Export Plug-In . SVG Version: 6.00 Build 0)  -->
<svg version="1.1" id="CART" xmlns="http://www.w3.org/2000/svg" xmlns:xlink="http://www.w3.org/1999/xlink" x="0px" y="0px"
	 width="23px" height="20px" viewBox="0 0 24 20" style="enable-background:new 0 0 24 20;" xml:space="preserve">
<style type="text/css">
	.st0{fill:#FFFFFF;}
</style>
<path class="st0" d="M7.1,3c0.2,0.7,0.3,1.3,0.5,2c4.5,0,9.1,0,13.6,0c-0.6,2.4-1.3,4.7-1.9,7c-3.8,0-7.6,0-11.5,0
	c-0.3-1.4-0.7-2.7-1-4.1c-0.5-2.1-1-4.2-1.6-6.3c-0.3-1-1-1.6-2-1.6C2.6,0,1.9,0,1.2,0C0.6,0,0.1,0.4,0.1,1c0,0.6,0.4,1,1.1,1
	c0.6,0,1.2,0,1.8,0c0.2,0,0.3,0.1,0.4,0.3C3.7,3.4,4,4.5,4.3,5.6c0.6,2.3,1.1,4.5,1.7,6.8c0.2,0.9,0.8,1.4,1.7,1.5
	c0.3,0,0.6,0,0.9,0c-1.7,0.6-2.7,1.9-2.4,3.4C6.4,18.9,7.6,20,9.1,20c1.5,0,2.8-1.1,3-2.6c0.3-1.5-0.7-2.8-2.5-3.4c2.7,0,5.3,0,8,0
	c-1.8,0.6-2.7,1.9-2.5,3.4c0.2,1.5,1.5,2.6,3,2.6c1.5,0,2.7-1.1,3-2.6c0.2-1.5-0.7-2.8-2.5-3.4c0.3,0,0.4,0,0.6,0
	c1.2,0,1.8-0.5,2.1-1.6c0.4-1.3,0.7-2.7,1.1-4c0.5-1.8,1-3.5,1.5-5.4C18.3,3,12.7,3,7.1,3z M10.1,17c0,0.6-0.5,1-1,1
	c-0.6,0-1-0.5-1-1c0-0.6,0.5-1,1-1C9.7,16,10.1,16.5,10.1,17z M19.1,17c0,0.6-0.5,1-1,1s-1-0.5-1-1c0-0.6,0.5-1,1-1
	S19.1,16.5,19.1,17z"/>
</svg>
